# xmcd CD database file
#
# Track frame offsets:
#	150
#	8749
#	22595
#	32066
#	45206
#	57317
#	65614
#	79519
#	93486
#	106215
#	120466
#	132661
#	147143
#	160667
#	174416
#	189136
#	202567
#	217438
#	231192
#	242574
#	257561
#	267173
#	274231
#	283949
#	291129
#	293969
#	297226
#	302933
#	306561
#	314696
#	317136
#
# Disc length: 4440 seconds
#
# Revision: 2
# Processed by: cddbd v1.5.2PL0 Copyright (c) Steve Scherf et al.
# Submitted via: CDex 1.70beta3
#
DISCID=c711561f
DTITLE=サウンドトラック - COOL COOL TOON Sound Track
DYEAR=1900
DGENRE=Blues
TTITLE0=COOL COOL TOON
TTITLE1=YUSSA YUSSA
TTITLE2=KAMIMO KAMIMO
TTITLE3=YELLOW DOG?
TTITLE4=Irony～ぬくもりなら～
TTITLE5=I am Space Woman
TTITLE6=マリオネット
TTITLE7=WHITE COWBOY?
TTITLE8=DANCING GRAVESTONE
TTITLE9=ラブリー・PANDA・エプロン
TTITLE10=TEST MID
TTITLE11=THE GROWN-UP WORLD
TTITLE12=Dancers Be Ambitious!
TTITLE13=FIESTA de REGGAE
TTITLE14=Let's Make Funky
TTITLE15=AFRICAN DRUNK
TTITLE16=Shine Bright
TTITLE17=IMPERATORE
TTITLE18=Yussa Yussa You
TTITLE19=SHu
TTITLE20=Bomb's Life
TTITLE21=GUM GUM GUN
TTITLE22=Behind the Tower
TTITLE23=ん?あれ?…バケモノ!!
TTITLE24=図書館うろうろ
TTITLE25=やなやつ
TTITLE26=イバルエレジー
TTITLE27=エビバデフリッツなーお
TTITLE28=ユサんち
TTITLE29=ショッピング
TTITLE30=Welcome! Dance World
EXTD=
EXTT0=
EXTT1=
EXTT2=
EXTT3=
EXTT4=
EXTT5=
EXTT6=
EXTT7=
EXTT8=
EXTT9=
EXTT10=
EXTT11=
EXTT12=
EXTT13=
EXTT14=
EXTT15=
EXTT16=
EXTT17=
EXTT18=
EXTT19=
EXTT20=
EXTT21=
EXTT22=
EXTT23=
EXTT24=
EXTT25=
EXTT26=
EXTT27=
EXTT28=
EXTT29=
EXTT30=
PLAYORDER=
